<?xml version="1.0" encoding="UTF-8" standalone="no"?>
<svg
   xmlns:dc="http://purl.org/dc/elements/1.1/"
   xmlns:cc="http://creativecommons.org/ns#"
   xmlns:rdf="http://www.w3.org/1999/02/22-rdf-syntax-ns#"
   xmlns:svg="http://www.w3.org/2000/svg"
   xmlns="http://www.w3.org/2000/svg"
   xmlns:sodipodi="http://sodipodi.sourceforge.net/DTD/sodipodi-0.dtd"
   xmlns:inkscape="http://www.inkscape.org/namespaces/inkscape"
   width="53.061226"
   height="50"
   version="1"
   id="svg48"
   sodipodi:docname="quickreader icon.svg"
   inkscape:version="1.0.1 (3bc2e813f5, 2020-09-07)">
  <metadata
     id="metadata54">
    <rdf:RDF>
      <cc:Work
         rdf:about="">
        <dc:format>image/svg+xml</dc:format>
        <dc:type
           rdf:resource="http://purl.org/dc/dcmitype/StillImage" />
        <dc:title></dc:title>
      </cc:Work>
    </rdf:RDF>
  </metadata>
  <defs
     id="defs52">
    <style
       id="current-color-scheme"
       type="text/css">
   .ColorScheme-Text { color:#dfdfdf; } .ColorScheme-Highlight { color:#4285f4; }
  </style>
  </defs>
  <sodipodi:namedview
     pagecolor="#ffffff"
     bordercolor="#666666"
     borderopacity="1"
     objecttolerance="10"
     gridtolerance="10"
     guidetolerance="10"
     inkscape:pageopacity="0"
     inkscape:pageshadow="2"
     inkscape:window-width="3840"
     inkscape:window-height="2073"
     id="namedview50"
     showgrid="false"
     inkscape:zoom="44.6875"
     inkscape:cx="6.158875"
     inkscape:cy="11.965769"
     inkscape:window-x="0"
     inkscape:window-y="0"
     inkscape:window-maximized="1"
     inkscape:current-layer="svg48"
     inkscape:document-rotation="0"
     fit-margin-top="0"
     fit-margin-left="0"
     fit-margin-right="0"
     fit-margin-bottom="0"
     inkscape:pagecheckerboard="true"
     lock-margins="true" />
  <g
     id="g2025"
     transform="scale(1.0204082)">
    <path
       style="fill:#6e6b53;fill-opacity:1;stroke-width:1.39623"
       d="m 28.725055,36.003417 c -0.06939,-0.0201 -0.144873,-0.01103 -0.207257,0.02723 -0.06238,0.0384 -0.106574,0.102902 -0.125437,0.177321 -0.258052,1.020227 -0.389968,2.076756 -0.389968,3.141103 0,0.182907 0.0052,0.365813 0.01368,0.55989 0.0067,0.154982 0.125927,0.27785 0.269962,0.27785 0.0042,0 0.0094,0 0.01368,0 l 3.247928,-0.160567 c 0.07177,-0.0042 0.139763,-0.03909 0.188073,-0.09634 0.04845,-0.05725 0.07428,-0.132642 0.07093,-0.209435 -0.0056,-0.131246 -0.0082,-0.252718 -0.0082,-0.371398 0,-0.705097 0.08615,-1.402095 0.256348,-2.0748 0.03909,-0.154982 -0.04636,-0.31527 -0.190865,-0.357296 z"
       id="path5" />
    <path
       style="opacity:0.2"
       d="M 52,46.3333 V 3.6673 C 52,2.1896 50.84,1.0003 49.4,1.0003 H 2.6 C 1.1596,1.0003 0,2.1896 0,3.667 V 46.333 C 0,47.811 1.1596,49 2.6,49 h 46.8 c 1.44,0 2.6,-1.189 2.6,-2.667 z"
       id="path2" />
    <path
       fill="#ddd6a7"
       d="M 52,45.333 V 2.667 C 52,1.1893 50.84,0 49.4,0 H 2.6 C 1.1596,0 0,1.1893 0,2.6667 v 42.666 c 0,1.478 1.1596,2.667 2.6,2.667 h 46.8 c 1.44,0 2.6,-1.189 2.6,-2.667 z"
       id="path4" />
    <g
       id="g18"
       transform="translate(-6,-8)">
      <rect
         opacity="0.5"
         width="20"
         height="2"
         x="35"
         y="-33"
         transform="scale(1,-1)"
         id="rect6" />
      <rect
         opacity="0.5"
         width="20"
         height="2"
         x="35"
         y="-29"
         transform="scale(1,-1)"
         id="rect8" />
      <rect
         opacity="0.5"
         width="18"
         height="2"
         x="35"
         y="-25"
         transform="scale(1,-1)"
         id="rect10" />
      <rect
         opacity="0.5"
         width="14"
         height="2"
         x="35"
         y="-21"
         transform="scale(1,-1)"
         id="rect12" />
      <rect
         opacity="0.5"
         width="20"
         height="2"
         x="35"
         y="-17"
         transform="scale(1,-1)"
         id="rect14" />
      <rect
         opacity="0.5"
         width="16"
         height="2"
         x="35"
         y="-13"
         transform="scale(1,-1)"
         id="rect16" />
    </g>
    <g
       transform="translate(-6,-9)"
       id="g42">
      <rect
         opacity="0.5"
         width="20"
         height="2"
         x="9"
         y="13"
         id="rect20" />
      <rect
         opacity="0.5"
         width="18"
         height="2"
         x="9"
         y="17"
         id="rect22" />
      <rect
         opacity="0.5"
         width="16"
         height="2"
         x="9"
         y="21"
         id="rect24" />
      <rect
         opacity="0.5"
         width="14"
         height="2"
         x="9"
         y="25"
         id="rect26" />
      <rect
         opacity="0.5"
         width="12"
         height="2"
         x="9"
         y="29"
         id="rect28" />
      <rect
         opacity="0.5"
         width="20"
         height="2"
         x="9"
         y="33"
         id="rect30" />
      <rect
         opacity="0.5"
         width="20"
         height="2"
         x="9"
         y="37"
         id="rect32" />
      <rect
         opacity="0.5"
         width="18"
         height="2"
         x="9"
         y="41"
         id="rect34" />
      <rect
         opacity="0.5"
         width="14"
         height="2"
         x="9"
         y="45"
         id="rect36" />
      <rect
         opacity="0.5"
         width="20"
         height="2"
         x="9"
         y="49"
         id="rect38" />
      <rect
         opacity="0.5"
         width="16"
         height="2"
         x="9"
         y="53"
         id="rect40" />
    </g>
    <path
       style="opacity:0.2;fill:#ffffff"
       d="M 2.5996094,0 C 1.1592094,0 0,1.1886156 0,2.666016 V 3.667969 C 0,2.190569 1.1592094,1 2.5996094,1 H 49.400391 C 50.840391,1 52,2.190269 52,3.667969 v -1 C 52,1.1902687 50.840391,0 49.400391,0 Z"
       id="path46" />
    <path
       style="fill:#6e6b53;fill-opacity:1;stroke-width:1.39623"
       d="m 40.260333,27.432367 c -0.07204,-0.0077 -0.143533,0.01382 -0.199102,0.06283 -0.05543,0.04901 -0.08852,0.119517 -0.09536,0.19631 l -0.316386,3.471451 c -0.01452,0.159729 0.09634,0.303681 0.245457,0.319039 0.86329,0.08964 1.694467,0.339285 2.473286,0.741818 0.0377,0.01913 0.07958,0.02723 0.120075,0.02723 0.03072,0 0.05864,-0.0054 0.08796,-0.01634 0.06702,-0.02541 0.122868,-0.07777 0.154982,-0.147303 l 1.412987,-3.141521 c 0.06423,-0.14451 0.0084,-0.317503 -0.125661,-0.387176 -1.184005,-0.611272 -2.448572,-0.990209 -3.758238,-1.126342 z"
       id="path1539" />
    <path
       style="fill:#6e6b53;fill-opacity:1;stroke-width:1.39623"
       d="m 37.658734,27.484307 c -1.303383,0.189469 -2.552592,0.621184 -3.714117,1.281601 -0.132363,0.07526 -0.181929,0.250904 -0.111838,0.392761 l 1.524406,3.081483 c 0.04873,0.09844 0.142834,0.152748 0.240012,0.152748 0.04273,0 0.08489,-0.0098 0.125382,-0.03281 0.765135,-0.434926 1.587795,-0.717803 2.446059,-0.842626 0.148419,-0.0215 0.25202,-0.168107 0.231914,-0.327137 L 37.96423,27.732418 c -0.0201,-0.159031 -0.157495,-0.269613 -0.305496,-0.248111 z"
       id="path1537" />
    <path
       style="fill:#6e6b53;fill-opacity:1;stroke-width:1.39623"
       d="m 46.016579,29.993057 c -0.07121,0.008 -0.136831,0.04663 -0.182906,0.106392 l -2.052462,2.705199 c -0.04608,0.0599 -0.06562,0.135993 -0.05725,0.212647 0.007,0.07679 0.04189,0.147721 0.09774,0.196449 0.674381,0.587675 1.239854,1.288025 1.685252,2.086111 0.05166,0.09103 0.142416,0.141857 0.234567,0.141857 0.04747,0 0.09494,-0.01299 0.139624,-0.04091 l 2.792464,-1.788992 c 0.06143,-0.03951 0.104717,-0.102483 0.122868,-0.177182 0.01676,-0.07484 0.007,-0.154702 -0.03072,-0.220884 -0.672984,-1.206624 -1.530271,-2.269436 -2.54952,-3.157858 -0.05585,-0.04872 -0.127057,-0.07051 -0.199661,-0.06283 z"
       id="path1535" />
    <path
       style="fill:#6e6b53;fill-opacity:1;stroke-width:1.39623"
       d="m 31.997432,30.282216 c -0.07205,-0.005 -0.142276,0.01996 -0.19631,0.07079 -0.986997,0.93003 -1.806446,2.025793 -2.435224,3.258806 -0.03446,0.06772 -0.04204,0.149676 -0.02181,0.223676 0.02022,0.074 0.06501,0.134876 0.128119,0.171737 l 2.855294,1.674361 c 0.04119,0.02429 0.08685,0.03546 0.130827,0.03546 0.09592,0 0.188072,-0.05613 0.23722,-0.152608 0.415658,-0.81512 0.958792,-1.539206 1.61167,-2.154386 0.05417,-0.05082 0.08545,-0.122171 0.09006,-0.199103 0.0046,-0.07693 -0.01801,-0.154842 -0.06548,-0.212646 l -2.14894,-2.617936 c -0.04733,-0.05794 -0.113514,-0.09327 -0.18542,-0.09815 z"
       id="path1533" />
    <path
       style="fill:#6e6b53;fill-opacity:1;stroke-width:1.39623"
       d="m 49.494593,35.575332 -3.106616,1.041729 c -0.142416,0.04789 -0.222001,0.212227 -0.177322,0.365394 0.223397,0.762482 0.335096,1.558753 0.335096,2.366613 0,0.11868 -0.0028,0.240152 -0.0084,0.371398 -0.0028,0.07679 0.02234,0.152189 0.07121,0.209434 0.04887,0.05725 0.117283,0.09215 0.188491,0.09634 l 3.250448,0.160567 c 0.0042,0 0.007,0 0.01117,0 0.143812,0 0.262491,-0.122868 0.269473,-0.27785 0.0084,-0.194076 0.01396,-0.376983 0.01396,-0.559889 0,-1.221005 -0.171737,-2.426372 -0.509624,-3.582871 -0.04468,-0.153167 -0.195473,-0.239035 -0.337889,-0.190865 z"
       id="path1531" />
    <path
       style="fill:#6e6b53;fill-opacity:1;stroke-width:1.39623"
       d="m 44.291041,35.872199 c -0.0033,-0.05943 -0.0273,-0.11794 -0.07038,-0.166303 -0.08632,-0.0966 -0.230725,-0.127133 -0.352808,-0.07662 l -4.59364,1.898429 a 2.7924642,2.7924642 0 0 0 -0.591559,-0.107035 2.7924642,2.7924642 0 0 0 -2.980562,2.590747 2.7924642,2.7924642 0 0 0 2.590747,2.980561 2.7924642,2.7924642 0 0 0 2.980561,-2.590745 2.7924642,2.7924642 0 0 0 1.8e-4,-0.322607 l 2.964477,-4.035185 c 0.03774,-0.05138 0.05612,-0.111964 0.05298,-0.171251 z"
       id="path1529" />
  </g>
</svg>
